HIERARCHY
ROOT hips
{
  OFFSET 0 10.6860622 2.3727825e-15
  CHANNELS 6 Xposition Yposition Zposition Yrotation Xrotation Zrotation
  JOINT leftUpperLeg
  {
    OFFSET 0.6642549969 -0.9402397400000004 0
    CHANNELS 3 Yrotation Xrotation Zrotation
    JOINT leftLowerLeg
    {
      OFFSET 0 -3.997221335632195 0
      CHANNELS 3 Yrotation Xrotation Zrotation
      JOINT leftFoot
      {
        OFFSET -0.13777839790000004 -4.6145792000000005 -0.22186036399999998
        CHANNELS 3 Yrotation Xrotation Zrotation
        JOINT leftToes
        {
          OFFSET -0.03777410834999995 -0.9130806927000008 0.85230013
          CHANNELS 3 Yrotation Xrotation Zrotation
          End Site
          {
            OFFSET -0.03777410834999995 -0.9130806927000008 0.85230013
          }
        }
      }
    }
  }
  JOINT rightUpperLeg
  {
    OFFSET -0.6642778626 -0.9402397400000004 0
    CHANNELS 3 Yrotation Xrotation Zrotation
    JOINT rightLowerLeg
    {
      OFFSET 0 -3.997221452859387 0
      CHANNELS 3 Yrotation Xrotation Zrotation
      JOINT rightFoot
      {
        OFFSET 0.1377926176 -4.6145792000000005 -0.22185782299999995
        CHANNELS 3 Yrotation Xrotation Zrotation
        JOINT rightToes
        {
          OFFSET 0.037780746850000047 -0.9130806927000008 0.85230167
          CHANNELS 3 Yrotation Xrotation Zrotation
          End Site
          {
            OFFSET 0.037780746850000047 -0.9130806927000008 0.85230167
          }
        }
      }
    }
  }
  JOINT spine
  {
    OFFSET 0 0.13988381660000015 0
    CHANNELS 3 Yrotation Xrotation Zrotation
    JOINT chest
    {
      OFFSET 0 0.6191039003973773 0
      CHANNELS 3 Yrotation Xrotation Zrotation
      JOINT upperChest
      {
        OFFSET 0 0.9855186130586943 0
        CHANNELS 3 Yrotation Xrotation Zrotation
        JOINT leftShoulder
        {
          OFFSET 0.1807663869 1.5087829790000005 0
          CHANNELS 3 Yrotation Xrotation Zrotation
          JOINT leftUpperArm
          {
            OFFSET 0.5985063006419806 0 0
            CHANNELS 3 Yrotation Xrotation Zrotation
            JOINT leftLowerArm
            {
              OFFSET 2.2993332369501065 0 0
              CHANNELS 3 Yrotation Xrotation Zrotation
              JOINT leftHand
              {
                OFFSET 2.395047042602395 0 0
                CHANNELS 3 Yrotation Xrotation Zrotation
                JOINT leftIndexProximal
                {
                  OFFSET 0.5766295810000004 0.04556643899499946 0.17265095988184
                  CHANNELS 3 Yrotation Xrotation Zrotation
                  JOINT leftIndexIntermediate
                  {
                    OFFSET 0.2957229000000008 -0.019352197700001517 -0.007932640616999987
                    CHANNELS 3 Yrotation Xrotation Zrotation
                    JOINT leftIndexDistal
                    {
                      OFFSET 0.19008243099999922 -0.012484908149998475 -0.002786250786000012
                      CHANNELS 3 Yrotation Xrotation Zrotation
                      End Site
                      {
                        OFFSET 0.19008243099999922 -0.012484908149998475 -0.002786250786000012
                      }
                    }
                  }
                }
                JOINT leftMiddleProximal
                {
                  OFFSET 0.5834975091000001 0.0524350405149987 0.02204081888183999
                  CHANNELS 3 Yrotation Xrotation Zrotation
                  JOINT leftMiddleIntermediate
                  {
                    OFFSET 0.33880573540000003 -0.019871473270000717 -0.00000971183179999946
                    CHANNELS 3 Yrotation Xrotation Zrotation
                    JOINT leftMiddleDistal
                    {
                      OFFSET 0.20676022730000088 -0.012221336379999448 0.0001471936708000235
                      CHANNELS 3 Yrotation Xrotation Zrotation
                      End Site
                      {
                        OFFSET 0.20676022730000088 -0.012221336379999448 0.0001471936708000235
                      }
                    }
                  }
                }
                JOINT leftLittleProximal
                {
                  OFFSET 0.5344154683999995 -0.012880921405001189 -0.24414037221816004
                  CHANNELS 3 Yrotation Xrotation Zrotation
                  JOINT leftLittleIntermediate
                  {
                    OFFSET 0.21758961730000093 -0.011650919939999227 0.011893592810000034
                    CHANNELS 3 Yrotation Xrotation Zrotation
                    JOINT leftLittleDistal
                    {
                      OFFSET 0.1475273964999999 -0.008152365682999818 0.006001092492999946
                      CHANNELS 3 Yrotation Xrotation Zrotation
                      End Site
                      {
                        OFFSET 0.1475273964999999 -0.008152365682999818 0.006001092492999946
                      }
                    }
                  }
                }
                JOINT leftRingProximal
                {
                  OFFSET 0.5799399463000003 0.026911854694997794 -0.12150566991816003
                  CHANNELS 3 Yrotation Xrotation Zrotation
                  JOINT leftRingIntermediate
                  {
                    OFFSET 0.26167887460000006 -0.013480186499999602 0.010996293000000053
                    CHANNELS 3 Yrotation Xrotation Zrotation
                    JOINT leftRingDistal
                    {
                      OFFSET 0.17667108799999987 -0.008990287899999228 0.0055541023999999065
                      CHANNELS 3 Yrotation Xrotation Zrotation
                      End Site
                      {
                        OFFSET 0.17667108799999987 -0.008990287899999228 0.0055541023999999065
                      }
                    }
                  }
                }
                JOINT leftThumbProximal
                {
                  OFFSET 0.11018806699999972 -0.09448718900500053 0.17047963138184
                  CHANNELS 3 Yrotation Xrotation Zrotation
                  JOINT leftThumbIntermediate
                  {
                    OFFSET 0.31062601459999983 -0.08126270900000132 0.15443142000000007
                    CHANNELS 3 Yrotation Xrotation Zrotation
                    JOINT leftThumbDistal
                    {
                      OFFSET 0.21627175790000086 -0.08833193599999878 0.018771167799999988
                      CHANNELS 3 Yrotation Xrotation Zrotation
                      End Site
                      {
                        OFFSET 0.21627175790000086 -0.08833193599999878 0.018771167799999988
                      }
                    }
                  }
                }
              }
            }
          }
        }
        JOINT neck
        {
          OFFSET 0 1.5463305265074576 0
          CHANNELS 3 Yrotation Xrotation Zrotation
          JOINT head
          {
            OFFSET 0 0.8456443600000344 0
            CHANNELS 3 Yrotation Xrotation Zrotation
            JOINT leftEye
            {
              OFFSET 0.30408573140000006 0.5104519199999995 0.1276382305
              CHANNELS 3 Yrotation Xrotation Zrotation
              End Site
              {
                OFFSET 0.30408573140000006 0.5104519199999995 0.1276382305
              }
            }
            JOINT rightEye
            {
              OFFSET -0.30409491089999996 0.5104519199999995 0.1276379445
              CHANNELS 3 Yrotation Xrotation Zrotation
              End Site
              {
                OFFSET -0.30409491089999996 0.5104519199999995 0.1276379445
              }
            }
            JOINT jaw
            {
              OFFSET -3.155239131000001e-7 -0.11984121820000082 0.60178107
              CHANNELS 3 Yrotation Xrotation Zrotation
              End Site
              {
                OFFSET -3.155239131000001e-7 -0.11984121820000082 0.60178107
              }
            }
          }
        }
        JOINT rightShoulder
        {
          OFFSET -0.1807303465 1.5087829790000005 0
          CHANNELS 3 Yrotation Xrotation Zrotation
          JOINT rightUpperArm
          {
            OFFSET -0.5985063796536958 0 0
            CHANNELS 3 Yrotation Xrotation Zrotation
            JOINT rightLowerArm
            {
              OFFSET -2.2993322059002854 0 0
              CHANNELS 3 Yrotation Xrotation Zrotation
              JOINT rightHand
              {
                OFFSET -2.395045314457259 0 0
                CHANNELS 3 Yrotation Xrotation Zrotation
                JOINT rightIndexProximal
                {
                  OFFSET -0.5764487688300002 0.0441371204405987 0.17361932004999997
                  CHANNELS 3 Yrotation Xrotation Zrotation
                  JOINT rightIndexIntermediate
                  {
                    OFFSET -0.29573011380000047 -0.01934826376999843 -0.007698921482999974
                    CHANNELS 3 Yrotation Xrotation Zrotation
                    JOINT rightIndexDistal
                    {
                      OFFSET -0.19008373999999884 -0.012503266380000655 -0.0026365778999999897
                      CHANNELS 3 Yrotation Xrotation Zrotation
                      End Site
                      {
                        OFFSET -0.19008373999999884 -0.012503266380000655 -0.0026365778999999897
                      }
                    }
                  }
                }
                JOINT rightMiddleProximal
                {
                  OFFSET -0.5834852037300005 0.05211639405060153 0.02307162440000001
                  CHANNELS 3 Yrotation Xrotation Zrotation
                  JOINT rightMiddleIntermediate
                  {
                    OFFSET -0.33880114510000003 -0.019952774050000954 0.0002455003561999819
                    CHANNELS 3 Yrotation Xrotation Zrotation
                    JOINT rightMiddleDistal
                    {
                      OFFSET -0.20675694929999955 -0.012273788999999091 0.00030209124000002766
                      CHANNELS 3 Yrotation Xrotation Zrotation
                      End Site
                      {
                        OFFSET -0.20675694929999955 -0.012273788999999091 0.00030209124000002766
                      }
                    }
                  }
                }
                JOINT rightLittleProximal
                {
                  OFFSET -0.5346811737299992 -0.011214256288399227 -0.24363941305000003
                  CHANNELS 3 Yrotation Xrotation Zrotation
                  JOINT rightLittleIntermediate
                  {
                    OFFSET -0.21757715980000092 -0.011771559690000988 0.01201554387
                    CHANNELS 3 Yrotation Xrotation Zrotation
                    JOINT rightLittleDistal
                    {
                      OFFSET -0.1475201849000004 -0.00822055339600003 0.006082065407000015
                      CHANNELS 3 Yrotation Xrotation Zrotation
                      End Site
                      {
                        OFFSET -0.1475201849000004 -0.00822055339600003 0.006082065407000015
                      }
                    }
                  }
                }
                JOINT rightRingProximal
                {
                  OFFSET -0.5800810755299999 0.027657985680600072 -0.12066365025000003
                  CHANNELS 3 Yrotation Xrotation Zrotation
                  JOINT rightRingIntermediate
                  {
                    OFFSET -0.26166445029999974 -0.013623118409999302 0.011164098990000045
                    CHANNELS 3 Yrotation Xrotation Zrotation
                    JOINT rightRingDistal
                    {
                      OFFSET -0.17666387530000027 -0.009072900100000503 0.005668185599999959
                      CHANNELS 3 Yrotation Xrotation Zrotation
                      End Site
                      {
                        OFFSET -0.17666387530000027 -0.009072900100000503 0.005668185599999959
                      }
                    }
                  }
                }
                JOINT rightThumbProximal
                {
                  OFFSET -0.10997596379000074 -0.09577489355940072 0.16989765924999997
                  CHANNELS 3 Yrotation Xrotation Zrotation
                  JOINT rightThumbIntermediate
                  {
                    OFFSET -0.31036620999999986 -0.08229339117999834 0.15440884469999996
                    CHANNELS 3 Yrotation Xrotation Zrotation
                    JOINT rightThumbDistal
                    {
                      OFFSET -0.21631306399999906 -0.08825326400000111 0.018656797720000014
                      CHANNELS 3 Yrotation Xrotation Zrotation
                      End Site
                      {
                        OFFSET -0.21631306399999906 -0.08825326400000111 0.018656797720000014
                      }
                    }
                  }
                }
              }
            }
          }
        }
      }
    }
  }
}
MOTION
Frames: 7
Frame Time: 0.03333333333333333
-0.2265378385572506 -9.413769541434297 0.7440646989186503 0 0 -89.99999999999999 8.505058885098316 12.692250325628077 3.7748085236551088 3.1074697933396886 64.4111932599422 6.533075608927322 3.011775688311983 6.5014985505193215 0.1378163663631503 0 0 0 4.633570760785487 -12.194019184965851 -5.636221834881304 -78.33160502303267 47.736219825477264 -14.211001459087228 27.186234224774896 31.62946438287184 28.668051041530127 0 0 0 -21.663680445151403 -4.45531902338766 -2.7884471267367767 -14.38541364710579 17.979061736438585 8.474007938484341 0 0 0 25.832689886840335 -6.460423971298321 -9.197519238960496 -33.864209134684174 -30.909614119719105 -59.39402595466302 24.536698655844578 -1.3763573228975416 -16.070592510076697 0 0 0 0 0 0 0 0 0 0 0 0 0 0 0 0 0 0 0 0 0 0 0 0 0 0 0 0 0 0 0 0 0 0 0 0 0 0 0 0 0 0 0 0 0 0 0 0 -0.002340600894312382 -0.4738692526671581 24.34735645554007 0.550982857022563 3.329454774136339 8.6324344213337 0 0 0 0 0 0 0 0 0 -108.02757536778687 -40.25811023323053 90.27395189508985 -12.565277626341777 -15.031527113724223 -10.39928944876353 -38.04834082443734 22.966428310239465 36.66478017982577 -45.17349369666095 44.56633280288979 -32.735967911311356 0 0 0 0 0 0 0 0 0 0 0 0 0 0 0 0 0 0 0 0 0 0 0 0 0 0 0 0 0 0 0 0 0 0 0 0 0 0 0 0 0 0 0 0 0
-0.2265378385572506 -9.413769541434297 0.7093586259237904 0 0 -89.99999999999999 8.484691021921382 12.30458833907992 3.7298696624461196 3.230686240055024 64.89511091303307 6.6677869030186585 3.011775688311983 6.5014985505193215 0.1378163663631503 0 0 0 4.567232499303805 -12.399229103170963 -5.672123903314696 -78.33160502303267 47.736219825477264 -14.211001459087228 27.045288204221542 31.770317001895748 28.512844100032147 0 0 0 -21.271991660806282 -3.9697265245653006 -2.97518987593507 -14.186285174906534 18.382818515882953 8.43379618304078 0 0 0 25.810049612763933 -7.363425005301573 -8.874660625485163 -34.02033877873386 -31.175400911982656 -59.554136068308786 24.69639394836983 -1.333870947627223 -16.310681334071084 0 0 0 0 0 0 0 0 0 0 0 0 0 0 0 0 0 0 0 0 0 0 0 0 0 0 0 0 0 0 0 0 0 0 0 0 0 0 0 0 0 0 0 0 0 0 0 0 -0.002335639415899407 -0.47387026655803927 24.27042029624313 0.5526438191382781 3.388032274839115 8.589858370394504 0 0 0 0 0 0 0 0 0 -108.85001709831744 -39.64851911076689 90.80751207866622 -12.565277626341777 -15.031527113724223 -10.39928944876353 -37.7082045837692 22.747097340700503 36.400338840212406 -45.32510314988799 44.96654398054018 -32.17407200914738 0 0 0 0 0 0 0 0 0 0 0 0 0 0 0 0 0 0 0 0 0 0 0 0 0 0 0 0 0 0 0 0 0 0 0 0 0 0 0 0 0 0 0 0 0
-0.2265378385572506 -9.413769541434297 0.6920054552302246 0 0 -89.99999999999999 8.47463245392232 12.110758027726312 3.707478482595399 3.2941444170346013 65.13698550472125 6.736985335519019 3.011775688311983 6.5014985505193215 0.1378163663631503 0 0 0 4.534092498979961 -12.501844668928783 -5.68999136190644 -78.33160502303267 47.736219825477264 -14.211001459087228 26.97456244540158 31.8406167041996 28.434995982043723 0 0 0 -21.07684842644876 -3.7264872439416994 -3.067259854163525 -14.086660275822492 18.584729077236776 8.414212097026377 0 0 0 25.79679649776866 -7.814749146414676 -8.712890178511973 -34.09824176790883 -31.30842818878735 -59.6340408539929 24.776169577872324 -1.3123770145910503 -16.43067573909523 0 0 0 0 0 0 0 0 0 0 0 0 0 0 0 0 0 0 0 0 0 0 0 0 0 0 0 0 0 0 0 0 0 0 0 0 0 0 0 0 0 0 0 0 0 0 0 0 -0.0023331528401499455 -0.47387026655803927 24.231947584187125 0.5534578651183841 3.4173211749153305 8.568568880704523 0 0 0 0 0 0 0 0 0 -109.25568172042252 -39.34162109748379 91.06822596265718 -12.565277626341777 -15.031527113724223 -10.39928944876353 -37.53794062530183 22.63798578040416 36.267759532222705 -45.3992097586833 45.167006433668355 -31.892265463196775 0 0 0 0 0 0 0 0 0 0 0 0 0 0 0 0 0 0 0 0 0 0 0 0 0 0 0 0 0 0 0 0 0 0 0 0 0 0 0 0 0 0 0 0 0
-0.2265378385572506 -9.413769541434297 0.6746522845366589 0 0 -89.99999999999999 8.464658940882714 11.916924343091493 3.685137852946621 3.3588877769433934 65.37883777484983 6.807463255770278 3.011775688311983 6.5014985505193215 0.1378163663631503 0 0 0 4.500972140870625 -12.604471255539854 -5.707805222242655 -78.33160502303267 47.736219825477264 -14.211001459087228 26.903674024310682 31.910829203915984 28.356987184117035 0 0 0 -20.882149972929593 -3.482937349310652 -3.158474815403422 -13.98699050280619 18.78667355544251 8.394975679616861 0 0 0 25.782239971229522 -8.266034619699585 -8.550835403376691 -34.17603711032978 -31.44155151780801 -59.713845489416514 24.855900413844765 -1.2907162044130938 -16.550638083033704 0 0 0 0 0 0 0 0 0 0 0 0 0 0 0 0 0 0 0 0 0 0 0 0 0 0 0 0 0 0 0 0 0 0 0 0 0 0 0 0 0 0 0 0 0 0 0 0 -0.0023306662644004745 -0.47387026655803927 24.193475341069306 0.554260994748757 3.446610541409111 8.547279121749298 0 0 0 0 0 0 0 0 0 -109.65777276529049 -39.03331245598813 91.32499762271311 -12.565277626341777 -15.031527113724223 -10.39928944876353 -37.36754021152993 22.529239949035272 36.13493368854633 -45.47217696064181 45.367719917840155 -31.60983363898143 0 0 0 0 0 0 0 0 0 0 0 0 0 0 0 0 0 0 0 0 0 0 0 0 0 0 0 0 0 0 0 0 0 0 0 0 0 0 0 0 0 0 0 0 0
-0.2265378385572506 -9.413769541434297 0.6399462115417989 0 0 -89.99999999999999 8.444968594515215 11.529274620159464 3.6406125773627163 3.49237211195851 65.8623902227138 6.952398153609815 3.011775688311983 6.5014985505193215 0.1378163663631503 0 0 0 4.434795608250223 -12.809757111426324 -5.743277995011202 -78.33160502303267 47.736219825477264 -14.211001459087228 26.761393998836766 32.05101639406551 28.20047696889062 0 0 0 -20.494136828977574 -2.9950085671886284 -3.3383188215937905 -13.78752657371395 19.190622381250115 8.357549937289846 0 0 0 25.749199836145838 -9.168091938764288 -8.225916401894066 -34.33129323416401 -31.708042687364607 -59.873148953290695 25.0152165782771 -1.2468963057700249 -16.79046159278526 0 0 0 0 0 0 0 0 0 0 0 0 0 0 0 0 0 0 0 0 0 0 0 0 0 0 0 0 0 0 0 0 0 0 0 0 0 0 0 0 0 0 0 0 0 0 0 0 -0.0023265940249971822 -0.47386989301929355 24.1165230026407 0.5558353967904942 3.5051930567175895 8.504698546108225 0 0 0 0 0 0 0 0 0 -110.45115845983118 -38.41279759239206 91.82671553118936 -12.565277626341777 -15.031527113724223 -10.39928944876353 -37.02636490706413 22.312869993835474 35.86858783686936 -45.61458525395365 45.76978849127026 -31.043178790927552 0 0 0 0 0 0 0 0 0 0 0 0 0 0 0 0 0 0 0 0 0 0 0 0 0 0 0 0 0 0 0 0 0 0 0 0 0 0 0 0 0 0 0 0 0
-0.2265378385572506 -9.413769541434297 0.6225931750443688 0 0 -89.99999999999999 8.43524951308181 11.335462834625222 3.6184257379738485 3.561186234952663 66.10407099612436 7.0269297687242265 3.011775688311983 6.5014985505193215 0.1378163663631503 0 0 0 4.401735486566362 -12.912409183182428 -5.76093190091528 -78.33160502303267 47.736219825477264 -14.211001459087228 26.690006589936708 32.12098286608671 28.121983381265572 0 0 0 -20.30081785448501 -2.7506541448390833 -3.4269476558103436 -13.687727521090485 19.39261380391353 8.33936427128598 0 0 0 25.730716428725245 -9.618796482356657 -8.063035077052422 -34.40875628221366 -31.84140865421092 -59.95263952220605 25.094800595695038 -1.2247380733054143 -16.910320613497802 0 0 0 0 0 0 0 0 0 0 0 0 0 0 0 0 0 0 0 0 0 0 0 0 0 0 0 0 0 0 0 0 0 0 0 0 0 0 0 0 0 0 0 0 0 0 0 0 -0.0023240957761617655 -0.473869359392514 24.078044430472275 0.5566061542612138 3.5344853656782647 8.483406505264357 0 0 0 0 0 0 0 0 0 -110.84251660234028 -38.10068066131222 92.0717407845639 -12.565277626341777 -15.031527113724223 -10.39928944876353 -36.855603347582935 22.205258109344978 35.735068954177294 -45.68401111355618 45.97111388289592 -30.758962517701594 0 0 0 0 0 0 0 0 0 0 0 0 0 0 0 0 0 0 0 0 0 0 0 0 0 0 0 0 0 0 0 0 0 0 0 0 0 0 0 0 0 0 0 0 0
-0.2265378385572506 -9.413769541434297 0.6052401385469388 0 0 -89.99999999999999 8.425614282201806 11.141647507116325 3.5962876959625896 3.631446329109485 66.34571705912602 7.102901798441504 3.011775688311983 6.5014985505193215 0.1378163663631503 0 0 0 4.3686942081453 -13.015071013450243 -5.778532213927177 -78.33160502303267 47.736219825477264 -14.211001459087228 26.618448598855707 32.19086581418643 28.043328117044055 0 0 0 -20.10791353349916 -2.5060028171896516 -3.514733437393982 -13.587870191651026 19.594635081036877 8.321528899228335 0 0 0 25.710908049302123 -10.069446276147813 -7.8997849674141465 -34.48611070122569 -31.97486704030805 -60.03203573704724 25.174337537696548 -1.2024135015087507 -17.030147165949924 0 0 0 0 0 0 0 0 0 0 0 0 0 0 0 0 0 0 0 0 0 0 0 0 0 0 0 0 0 0 0 0 0 0 0 0 0 0 0 0 0 0 0 0 0 0 0 0 -0.002321597735774303 -0.4738688257657346 24.039566256913403 0.5573659733405064 3.563778171949616 8.462114456175632 0 0 0 0 0 0 0 0 0 -111.23052247999966 -37.787268201835204 92.31302222284643 -12.565277626341777 -15.031527113724223 -10.39928944876353 -36.6847010011779 22.098014318070593 35.60130539247487 -45.75224739145429 46.172675666967194 -30.474057411423594 0 0 0 0 0 0 0 0 0 0 0 0 0 0 0 0 0 0 0 0 0 0 0 0 0 0 0 0 0 0 0 0 0 0 0 0 0 0 0 0 0 0 0 0 0
